<svg width="17074" height="8709" xmlns="http://www.w3.org/2000/svg" xmlns:xlink="http://www.w3.org/1999/xlink" overflow="hidden"><defs><clipPath id="clip0"><rect x="254" y="-845" width="17074" height="8709"/></clipPath></defs><g clip-path="url(#clip0)" transform="translate(-254 845)"><rect x="276" y="1440" width="544" height="344" fill="#FFE699"/><text font-family="Calibri,Calibri_MSFontService,sans-serif" font-weight="400" font-size="83" transform="matrix(1 0 0 1 379.383 1590)">Press Start <tspan font-size="83" x="53.5792" y="99">B</tspan><tspan font-size="83" x="98.2667" y="99">utton</tspan></text><rect x="1047" y="1434" width="671" height="446" fill="#C5E0B4"/><text font-family="Calibri,Calibri_MSFontService,sans-serif" font-weight="700" font-size="83" transform="matrix(1 0 0 1 1079.54 1553)">landing<tspan font-size="83" x="252.083" y="0">(request)</tspan><tspan font-weight="400" font-size="46" x="0" y="65">Insets the elements of </tspan><tspan font-weight="400" font-size="46" x="0" y="120">searchabel_owl_classes in the </tspan><tspan font-weight="400" font-size="46" x="0" y="175">select fields. </tspan></text><rect x="1014" y="96.9999" width="1695" height="255" fill="#C5E0B4"/><text font-family="Calibri,Calibri_MSFontService,sans-serif" font-weight="400" font-size="183" transform="matrix(1 0 0 1 1046.91 285)">views.py </text><path d="M0.106033-6.87472 228.694-3.34907 228.482 10.4004-0.106033 6.87472ZM191.267-27.0569 242.232 3.73609 190.341 32.9427C187.032 34.8052 182.84 33.6325 180.977 30.3234 179.115 27.0143 180.287 22.8218 183.596 20.9593L225.216-2.46602 225.033 9.41047 184.156-15.2873C180.905-17.251 179.863-21.4776 181.826-24.7276 183.79-27.9777 188.017-29.0206 191.267-27.0569Z" transform="matrix(1 0 0 -1 820 1611.74)"/><rect x="2837" y="88" width="14491" height="255" fill="#8FAADC"/><text font-family="Calibri,Calibri_MSFontService,sans-serif" font-weight="400" font-size="183" transform="matrix(1 0 0 1 2869.97 276)">SurfTheOWL.py</text><rect x="2853" y="1215" width="1299" height="397" fill="#B4C7E7"/><rect x="2849" y="1646" width="1510" height="409" fill="#B4C7E7"/><path d="M1720 1721.12 2847.03 1721.12 2847.03 1734.88 1720 1734.88ZM2809.23 1698 2860.67 1728 2809.23 1758C2805.95 1759.92 2801.74 1758.81 2799.83 1755.53 2797.92 1752.25 2799.02 1748.04 2802.3 1746.13L2843.56 1722.06 2843.56 1733.94 2802.3 1709.87C2799.02 1707.96 2797.92 1703.75 2799.83 1700.47 2801.74 1697.19 2805.95 1696.08 2809.23 1698Z"/><path d="M0.0227916-6.8755 1121.27-3.15869 1121.22 10.5923-0.0227916 6.8755ZM1083.55-26.4116 1134.89 3.76205 1083.36 33.5947C1080.07 35.4972 1075.86 34.3753 1073.96 31.089 1072.06 27.8027 1073.18 23.5964 1076.47 21.6939L1117.8-2.23359 1117.76 9.64424 1076.59-14.5568C1073.31-16.481 1072.22-20.6946 1074.14-23.9683 1076.07-27.2419 1080.28-28.3358 1083.55-26.4116Z" transform="matrix(-1 0 0 1 2856.86 1864)"/><path d="M1.02448e-05-6.87554 228.59-6.8752 228.59 6.87588-1.02448e-05 6.87554ZM190.801-30.0031 242.235 0.000360852 190.801 30.0036C187.521 31.917 183.311 30.809 181.398 27.5291 179.484 24.2491 180.592 20.039 183.872 18.1257L225.126-5.93861 225.126 5.93928 183.872-18.1252C180.592-20.0385 179.484-24.2485 181.398-27.5285 183.311-30.8085 187.521-31.9164 190.801-30.0031Z" transform="matrix(-1 0 0 1 1046.2 1720)"/><rect x="260" y="2160" width="544" height="344" fill="#FFE699"/><text font-family="Calibri,Calibri_MSFontService,sans-serif" font-weight="400" font-size="83" transform="matrix(1 0 0 1 357.955 2260)">Select one <tspan font-size="83" x="-53.5563" y="99">class an press </tspan><tspan font-size="83" x="41.5479" y="198">SEARCH </tspan></text><rect x="956" y="2160" width="1436" height="1896" fill="#C5E0B4"/><path d="M319.74 495.452 319.741-780.282 797.36-780.281 797.359 495.452Z" fill="#FFE699" fill-rule="evenodd"/><text font-family="Calibri,Calibri_MSFontService,sans-serif" font-weight="400" font-size="183" transform="matrix(1.16355e-06 -1 1 1.16355e-06 508.229 462)">Webbrowser <tspan font-size="183" x="0.000255982" y="220">HTML template </tspan></text><rect x="2923" y="2266" width="2123" height="2666" fill="#8FAADC"/><rect x="2975" y="2959" width="1637" height="743" fill="#B4C7E7"/><text font-family="Calibri,Calibri_MSFontService,sans-serif" font-weight="700" font-size="83" transform="matrix(1 0 0 1 3007.77 2652)">main_search(selected class)</text><path d="M804 2287.12 942.015 2287.12 942.015 2300.88 804 2300.88ZM904.226 2264 955.66 2294 904.226 2324C900.946 2325.92 896.736 2324.81 894.822 2321.53 892.909 2318.25 894.017 2314.04 897.297 2312.13L938.55 2288.06 938.55 2299.94 897.297 2275.87C894.017 2273.96 892.909 2269.75 894.823 2266.47 896.736 2263.19 900.946 2262.08 904.226 2264Z"/><path d="M2392 2376.12 2909.37 2376.12 2909.37 2389.88 2392 2389.88ZM2871.58 2353 2923.02 2383 2871.58 2413C2868.3 2414.92 2864.09 2413.81 2862.18 2410.53 2860.26 2407.25 2861.37 2403.04 2864.65 2401.13L2905.91 2377.06 2905.91 2388.94 2864.65 2364.87C2861.37 2362.96 2860.26 2358.75 2862.18 2355.47 2864.09 2352.19 2868.3 2351.08 2871.58 2353Z"/><rect x="5177" y="2962" width="1950" height="4141" fill="#8FAADC"/><path d="M4612 3190.12 5144.58 3190.12 5144.58 3203.88 4612 3203.88ZM5106.79 3167 5158.22 3197 5106.79 3227C5103.51 3228.92 5099.3 3227.81 5097.38 3224.53 5095.47 3221.25 5096.58 3217.04 5099.86 3215.13L5141.11 3191.06 5141.11 3202.94 5099.86 3178.87C5096.58 3176.96 5095.47 3172.75 5097.38 3169.47 5099.3 3166.19 5103.51 3165.08 5106.79 3167Z"/><rect x="8260" y="2472" width="854" height="1098" fill="#8FAADC"/><text font-family="Calibri,Calibri_MSFontService,sans-serif" font-weight="700" font-size="83" transform="matrix(1 0 0 1 8293.06 2603)">end_of_entries<tspan font-size="83" x="518.879" y="0">(</tspan>key<tspan font-size="83" x="661.398" y="0">)</tspan><tspan font-weight="400" font-size="83" x="0" y="198">Retunrs</tspan><tspan font-weight="400" font-size="83" x="276.856" y="198">true</tspan><tspan font-weight="400" font-size="83" x="417.794" y="198">, </tspan><tspan font-weight="400" font-size="83" x="457.325" y="198">if</tspan><tspan font-weight="400" font-size="83" x="520.346" y="198">no</tspan><tspan font-weight="400" font-size="83" x="0" y="297">subclasses</tspan><tspan font-weight="400" font-size="83" x="368.958" y="297">are</tspan><tspan font-weight="400" font-size="83" x="496.215" y="297">defined</tspan><tspan font-weight="400" font-size="83" x="0" y="396">from</tspan><tspan font-weight="400" font-size="83" x="180.858" y="396">a </tspan><tspan font-weight="400" font-size="83" x="239.296" y="396">given</tspan><tspan font-weight="400" font-size="83" x="0" y="495">classname</tspan><tspan font-weight="400" font-size="83" x="347.761" y="495">. This </tspan><tspan font-weight="400" font-size="83" x="540.833" y="495">is</tspan><tspan font-weight="400" font-size="83" x="610.73" y="495">the</tspan><tspan font-weight="400" font-size="83" x="0" y="594">case</tspan><tspan font-weight="400" font-size="83" x="147.125" y="594">, </tspan><tspan font-weight="400" font-size="83" x="186.656" y="594">when</tspan><tspan font-weight="400" font-size="83" x="392.906" y="594">the</tspan><tspan font-weight="400" font-size="83" x="524.105" y="594">name</tspan><tspan font-weight="400" font-size="83" x="0" y="693">points</tspan><tspan font-weight="400" font-size="83" x="227.265" y="693">to</tspan><tspan font-weight="400" font-size="83" x="316.41" y="693">another</tspan><tspan font-weight="400" font-size="83" x="0" y="792">object</tspan><tspan font-weight="400" font-size="83" x="229.167" y="792">or</tspan><tspan font-weight="400" font-size="83" x="320.261" y="792">an </tspan><tspan font-weight="400" font-size="83" x="422.239" y="792">instance</tspan><tspan font-weight="400" font-size="83" x="0" y="891">or</tspan><tspan font-weight="400" font-size="83" x="91.0938" y="891">no</tspan><tspan font-weight="400" font-size="83" x="197.083" y="891">subclass</tspan><tspan font-weight="400" font-size="83" x="492.708" y="891">is</tspan><tspan font-weight="400" font-size="83" x="562.605" y="891">found</tspan><tspan font-weight="400" font-size="83" x="760.237" y="891">. </tspan></text><rect x="9931" y="3866" width="2174" height="380" fill="#8FAADC"/><text font-family="Calibri,Calibri_MSFontService,sans-serif" font-weight="700" font-size="83" transform="matrix(1 0 0 1 9964.34 3984)">is_class_datatype(key)<tspan font-weight="400" font-size="83" x="0" y="198">Retuns true, if key is a classified instance</tspan></text><rect x="9932" y="3424" width="1472" height="380" fill="#8FAADC"/><text font-family="Calibri,Calibri_MSFontService,sans-serif" font-weight="700" font-size="83" transform="matrix(1 0 0 1 9964.65 3542)">is_class_refere_other_object<tspan font-size="83" x="983.836" y="0">(</tspan>key<tspan font-size="83" x="1126.35" y="0">)</tspan><tspan font-weight="400" font-size="83" x="0" y="198">Retuns</tspan><tspan font-weight="400" font-size="83" x="249.632" y="198">true</tspan><tspan font-weight="400" font-size="83" x="390.569" y="198">, </tspan><tspan font-weight="400" font-size="83" x="430.101" y="198">if</tspan><tspan font-weight="400" font-size="83" x="493.121" y="198">key</tspan><tspan font-weight="400" font-size="83" x="624.571" y="198">is</tspan><tspan font-weight="400" font-size="83" x="694.467" y="198">a </tspan><tspan font-weight="400" font-size="83" x="752.904" y="198">classified</tspan><tspan font-weight="400" font-size="83" x="1077.17" y="198">Object</tspan></text><rect x="9913" y="1403" width="1941" height="814" fill="#8FAADC"/><text font-family="Calibri,Calibri_MSFontService,sans-serif" font-weight="400" font-size="83" transform="matrix(1 0 0 1 9945.78 1739)">Extracts all subclasses, instances and Objects from the <tspan font-size="83" x="0" y="99">OWL of a given Classname(Key). These are returned as </tspan><tspan font-size="83" x="0" y="198">a list. </tspan></text><path d="M2.74428-6.30413 1123.15 481.427 1117.66 494.035-2.74428 6.30413ZM1097.72 445.132 1132.91 493.171 1073.77 500.152C1070 500.597 1066.58 497.9 1066.14 494.129 1065.69 490.358 1068.39 486.94 1072.16 486.495L1119.59 480.897 1114.85 491.787 1086.63 453.257C1084.38 450.194 1085.05 445.891 1088.11 443.648 1091.18 441.404 1095.48 442.068 1097.72 445.132Z" transform="matrix(1 0 0 -1 7127 3285.16)"/><path d="M2.60071-6.3647 1122.88 451.396 1117.67 464.126-2.60071 6.3647ZM1096.64 415.693 1132.91 462.923 1073.94 471.241C1070.18 471.772 1066.71 469.154 1066.18 465.394 1065.65 461.634 1068.26 458.156 1072.02 457.625L1119.31 450.953 1114.82 461.948 1085.74 424.068C1083.42 421.056 1083.99 416.74 1087 414.427 1090.01 412.114 1094.33 412.681 1096.64 415.693Z" transform="matrix(-1 0 0 1 8259.88 2592)"/><path d="M5308 3702 5899.5 3285 6491 3702 5899.5 4119Z" fill="#B4C7E7" fill-rule="evenodd"/><text font-family="Calibri,Calibri_MSFontService,sans-serif" font-weight="700" font-size="83" transform="matrix(1 0 0 1 5807.71 3680)">If not <tspan font-size="83" x="-167.475" y="99">end_of_entries</tspan><tspan font-size="83" x="-575.869" y="-476">children(key)</tspan><tspan font-size="83" x="4183.57" y="-2101">search_class(key)</tspan><tspan font-weight="400" font-size="83" x="728.997" y="-17">Yes</tspan></text><rect x="12582" y="1411" width="1781" height="813" fill="#8FAADC"/><text font-family="Calibri,Calibri_MSFontService,sans-serif" font-weight="700" font-size="83" transform="matrix(1 0 0 1 12614.6 1697)">property_restiction_in_string(OWL_class_string)<tspan font-weight="400" font-size="83" x="0" y="198">Detects owl properties and returns them. If no </tspan><tspan font-weight="400" font-size="83" x="0" y="297">property in a </tspan><tspan font-weight="400" font-size="83" x="451.275" y="297">string</tspan><tspan font-weight="400" font-size="83" x="658.9" y="297">the return is false. </tspan></text><rect x="15276" y="1444" width="1842" height="813" fill="#8FAADC"/><text font-family="Calibri,Calibri_MSFontService,sans-serif" font-weight="700" font-size="83" transform="matrix(1 0 0 1 15308.9 1631)">check_for_special_restriction<tspan font-size="83" x="999.533" y="0">(</tspan>OWL_class_string<tspan font-size="83" x="1625.53" y="0">)</tspan><tspan font-weight="400" font-size="83" x="0" y="198">If</tspan><tspan font-weight="400" font-size="83" x="64.7393" y="198">the</tspan><tspan font-weight="400" font-size="83" x="195.938" y="198">OWL_string</tspan><tspan font-weight="400" font-size="83" x="606.627" y="198">contains</tspan><tspan font-weight="400" font-size="83" x="906.675" y="198">a not in owlready2 </tspan><tspan font-weight="400" font-size="83" x="0" y="297">implemented</tspan><tspan font-weight="400" font-size="83" x="468.715" y="297">property</tspan><tspan font-weight="400" font-size="83" x="780.198" y="297">the</tspan><tspan font-weight="400" font-size="83" x="911.396" y="297">pointed</tspan><tspan font-weight="400" font-size="83" x="1190.47" y="297">instance</tspan><tspan font-weight="400" font-size="83" x="1488.76" y="297">is</tspan><tspan font-weight="400" font-size="83" x="0" y="396">retuned</tspan><tspan font-weight="400" font-size="83" x="286.665" y="396">classified</tspan><tspan font-weight="400" font-size="83" x="610.936" y="396">with</tspan><tspan font-weight="400" font-size="83" x="778.8" y="396">(&lt;</tspan><tspan font-weight="400" font-size="83" x="845.259" y="396">class</tspan><tspan font-weight="400" font-size="83" x="1021.72" y="396">…&gt;). </tspan><tspan font-weight="400" font-size="83" x="1184.43" y="396">Current</tspan><tspan font-weight="400" font-size="83" x="1458.74" y="396">this</tspan><tspan font-weight="400" font-size="83" x="1599.68" y="396">is</tspan><tspan font-weight="400" font-size="83" x="0" y="495">the</tspan><tspan font-weight="400" font-size="83" x="131.198" y="495">case</tspan><tspan font-weight="400" font-size="83" x="297.23" y="495">for</tspan><tspan font-weight="400" font-size="83" x="411.79" y="495">property</tspan><tspan font-weight="400" font-size="83" x="723.273" y="495">„</tspan><tspan font-weight="400" font-size="83" x="757.648" y="495">hasTimeStamp</tspan><tspan font-weight="400" font-size="83" x="1251.32" y="495">“</tspan></text><rect x="15276" y="2445" width="1962" height="814" fill="#8FAADC"/><text font-family="Calibri,Calibri_MSFontService,sans-serif" font-weight="700" font-size="83" transform="matrix(1 0 0 1 15308.9 2682)">check_for_object_refer<tspan font-size="83" x="793.879" y="0">(</tspan>OWL_class_string<tspan font-size="83" x="1419.87" y="0">)</tspan><tspan font-weight="400" font-size="83" x="0" y="198">If the OWL points on another defined </tspan><tspan font-weight="400" font-size="83" x="1271.78" y="198">Object</tspan><tspan font-weight="400" font-size="83" x="1511.84" y="198">the </tspan><tspan font-weight="400" font-size="83" x="0" y="297">function returns the object and classifies it (&lt;object …&gt;). </tspan><tspan font-weight="400" font-size="83" x="0" y="396">If not, the return is false. </tspan></text><rect x="7655" y="4412" width="2395" height="1748" fill="#8FAADC"/><text font-family="Calibri,Calibri_MSFontService,sans-serif" font-weight="700" font-size="83" transform="matrix(1 0 0 1 7726.63 4531)">get_data_instance(key)</text><path d="M0-6.87554 1740.58-6.87554 1740.58 2099.65 1733.7 2092.78 3453.78 2092.78 3453.78 2106.53 1726.83 2106.53 1726.83 0 1733.7 6.87554 0 6.87554ZM3416 2069.65 3467.43 2099.65 3416 2129.66C3412.72 2131.57 3408.51 2130.46 3406.6 2127.18 3404.68 2123.9 3405.79 2119.69 3409.07 2117.78L3450.32 2093.72 3450.32 2105.59 3409.07 2081.53C3405.79 2079.62 3404.68 2075.41 3406.6 2072.13 3408.51 2068.85 3412.72 2067.74 3416 2069.65Z" transform="matrix(1 0 0 -1 6488 3725.65)"/><path d="M7767 4959.5 8441.5 4610 9116 4959.5 8441.5 5309Z" fill="#B4C7E7" fill-rule="evenodd"/><text font-family="Calibri,Calibri_MSFontService,sans-serif" font-weight="700" font-size="83" transform="matrix(1 0 0 1 8349.55 4937)">If<tspan font-size="83" x="67.0313" y="0">not </tspan><tspan font-size="83" x="-208.244" y="99">is_class_datatype</tspan></text><path d="M8448.88 5309 8448.88 5552.17 8435.12 5552.17 8435.12 5309ZM8472 5514.38 8442 5565.81 8412 5514.38C8410.08 5511.1 8411.19 5506.89 8414.47 5504.97 8417.75 5503.06 8421.96 5504.17 8423.88 5507.45L8447.94 5548.7 8436.06 5548.7 8460.13 5507.45C8462.04 5504.17 8466.25 5503.06 8469.53 5504.97 8472.81 5506.89 8473.92 5511.1 8472 5514.38Z"/><text font-family="Calibri,Calibri_MSFontService,sans-serif" font-weight="400" font-size="83" transform="matrix(1 0 0 1 8480.22 5443)">Yes<tspan font-size="83" x="-753.59" y="219">Extracts the defined instances from the OWL of a given </tspan><tspan font-size="83" x="-753.59" y="318">class., mostly …Units</tspan><tspan font-size="83" x="-61.2774" y="318">.</tspan><tspan font-size="83" x="-753.59" y="417">Also Extracts the comment of </tspan><tspan font-size="83" x="249.564" y="417">a</tspan><tspan font-size="83" x="308.002" y="417">instance, if one is </tspan><tspan font-size="83" x="-753.59" y="516">provided</tspan><tspan font-size="83" x="-753.59" y="615">Returns</tspan><tspan font-size="83" x="-473.434" y="615">instances , instances Comments </tspan><tspan font-size="83" x="613.389" y="615">dictonarie</tspan></text><path d="M13.6134-6.87554 406.177-6.87554 406.177 480.708 399.302 473.832 784.99 473.832 784.99 487.583 392.426 487.583 392.426 0 399.302 6.87554 13.6134 6.87554ZM51.4024 30.0033-0.0318657 0 51.4024-30.0033C54.6824-31.9167 58.8924-30.8088 60.8058-27.5288 62.7191-24.2488 61.6112-20.0388 58.3312-18.1254L17.078 5.93895 17.078-5.93895 58.3312 18.1254C61.6112 20.0388 62.7191 24.2488 60.8058 27.5288 58.8924 30.8088 54.6824 31.9167 51.4024 30.0033ZM747.201 450.704 798.635 480.708 747.201 510.711C743.921 512.624 739.711 511.516 737.797 508.236 735.884 504.956 736.992 500.746 740.272 498.833L781.525 474.769 781.525 486.647 740.272 462.582C736.992 460.669 735.884 456.459 737.797 453.179 739.711 449.899 743.921 448.791 747.201 450.704Z" transform="matrix(1 0 0 -1 9114 2507.71)"/><text font-family="Calibri,Calibri_MSFontService,sans-serif" font-weight="400" font-size="83" transform="matrix(1 0 0 1 9222.62 2441)">Not</text><rect x="11101" y="5405" width="1697" height="654" fill="#B4C7E7"/><text font-family="Calibri,Calibri_MSFontService,sans-serif" font-weight="700" font-size="83" transform="matrix(1 0 0 1 11134.1 5561)">bad_letter_in_string(string)<tspan font-weight="400" font-size="83" x="0" y="198">Non</tspan><tspan font-weight="400" font-size="83" x="140.364" y="198">-</tspan><tspan font-weight="400" font-size="83" x="165.573" y="198">ececutable letters are detected, these are </tspan><tspan font-weight="400" font-size="83" x="1579.39" y="198">-</tspan><tspan font-weight="400" font-size="83" x="1604.6" y="198">, </tspan><tspan font-weight="400" font-size="83" x="0" y="297">., and a digit at the start of a String. If a bad </tspan><tspan font-weight="400" font-size="83" x="0" y="396">letter is detected return is true.</tspan></text><path d="M10050 5491.12 11096.2 5496.67 11096.1 5510.42 10050 5504.88ZM11058.5 5473.34 11109.8 5503.61 11058.2 5533.34C11054.9 5535.24 11050.7 5534.11 11048.8 5530.82 11046.9 5527.53 11048.1 5523.33 11051.4 5521.43L11092.7 5497.58 11092.7 5509.46 11051.6 5485.18C11048.3 5483.25 11047.2 5479.03 11049.1 5475.76 11051.1 5472.49 11055.3 5471.41 11058.5 5473.34Z"/><path d="M2.35087e-06-6.87554 1041.88-6.87519 1041.88 6.8759-2.35087e-06 6.87554ZM1004.09-30.003 1055.53 0.000359533 1004.09 30.0037C1000.81 31.917 996.603 30.8091 994.689 27.5291 992.776 24.2491 993.884 20.0391 997.164 18.1258L1038.42-5.93859 1038.42 5.9393 997.164-18.1251C993.884-20.0384 992.776-24.2484 994.689-27.5284 996.603-30.8084 1000.81-31.9163 1004.09-30.003Z" transform="matrix(-1 0 0 1 11101.5 5831)"/><path d="M14376.6 1538.12 14826.5 1538.12 14826.5 1817.83 14819.7 1810.96 15262.7 1810.96 15262.7 1824.71 14812.8 1824.71 14812.8 1545 14819.7 1551.88 14376.6 1551.88ZM14414.4 1575 14363 1545 14414.4 1515C14417.7 1513.08 14421.9 1514.19 14423.8 1517.47 14425.7 1520.75 14424.6 1524.96 14421.3 1526.87L14380.1 1550.94 14380.1 1539.06 14421.3 1563.13C14424.6 1565.04 14425.7 1569.25 14423.8 1572.53 14421.9 1575.81 14417.7 1576.92 14414.4 1575ZM15224.9 1787.83 15276.3 1817.83 15224.9 1847.84C15221.6 1849.75 15217.4 1848.64 15215.5 1845.36 15213.6 1842.08 15214.7 1837.87 15218 1835.96L15259.2 1811.9 15259.2 1823.77 15218 1799.71C15214.7 1797.8 15213.6 1793.59 15215.5 1790.31 15217.4 1787.03 15221.6 1785.92 15224.9 1787.83Z"/><path d="M14376.6 2057.12 14826.5 2057.12 14826.5 2833.46 14819.7 2826.58 15262.7 2826.58 15262.7 2840.33 14812.8 2840.33 14812.8 2064 14819.7 2070.88 14376.6 2070.88ZM14414.4 2094 14363 2064 14414.4 2034C14417.7 2032.08 14421.9 2033.19 14423.8 2036.47 14425.7 2039.75 14424.6 2043.96 14421.3 2045.87L14380.1 2069.94 14380.1 2058.06 14421.3 2082.13C14424.6 2084.04 14425.7 2088.25 14423.8 2091.53 14421.9 2094.81 14417.7 2095.92 14414.4 2094ZM15224.9 2803.45 15276.3 2833.46 15224.9 2863.46C15221.6 2865.37 15217.4 2864.27 15215.5 2860.99 15213.6 2857.71 15214.7 2853.5 15218 2851.58L15259.2 2827.52 15259.2 2839.4 15218 2815.33C15214.7 2813.42 15213.6 2809.21 15215.5 2805.93 15217.4 2802.65 15221.6 2801.54 15224.9 2803.45Z"/><path d="M11854 1563.12 12568 1563.12 12568 1576.88 11854 1576.88ZM12530.2 1540 12581.7 1570 12530.2 1600C12526.9 1601.92 12522.7 1600.81 12520.8 1597.53 12518.9 1594.25 12520 1590.04 12523.3 1588.13L12564.5 1564.06 12564.5 1575.94 12523.3 1551.87C12520 1549.96 12518.9 1545.75 12520.8 1542.47 12522.7 1539.19 12526.9 1538.08 12530.2 1540Z"/><path d="M12581.6 1824.41 11867.5 1817.02 11867.7 1803.27 12581.7 1810.66ZM11905.1 1840.53 11854 1810 11905.7 1780.53C11909 1778.65 11913.2 1779.8 11915.1 1783.1 11917 1786.4 11915.8 1790.6 11912.5 1792.48L11871 1816.12 11871.1 1804.24 11912.1 1828.73C11915.4 1830.68 11916.5 1834.9 11914.5 1838.16 11912.6 1841.42 11908.3 1842.48 11905.1 1840.53Z"/><path d="M4.70216e-06-6.87554 514.086-6.87519 514.086 6.87589-4.70216e-06 6.87554ZM476.297-30.003 527.732 0.00036194 476.297 30.0037C473.017 31.917 468.807 30.8091 466.894 27.5291 464.981 24.2491 466.089 20.0391 469.369 18.1258L510.622-5.9386 510.622 5.9393 469.369-18.1251C466.089-20.0385 464.981-24.2485 466.894-27.5285 468.807-30.8085 473.017-31.9163 476.297-30.003Z" transform="matrix(-1 0 0 1 7654.7 4757)"/><rect x="7655" y="7163" width="2391" height="701" fill="#8FAADC"/><text font-family="Calibri,Calibri_MSFontService,sans-serif" font-weight="400" font-size="83" transform="matrix(1 0 0 1 7687.89 7442)">Extracts the <tspan font-size="83" x="414.494" y="0">friendlyName</tspan><tspan font-size="83" x="890.588" y="0">of a given </tspan>className<tspan font-size="83" x="1611.09" y="0">from the OWL. If no </tspan><tspan font-size="83" x="0" y="99">friendlyName</tspan><tspan font-size="83" x="476.094" y="99">is defined the </tspan><tspan font-size="83" x="952.6" y="99">className</tspan><tspan font-size="83" x="1329.01" y="99">is classified as problematic. </tspan><tspan font-size="83" x="0" y="198">The retune is the </tspan><tspan font-size="83" x="588.019" y="198">frindlyName</tspan><tspan font-size="83" x="1022.86" y="198">or the classified </tspan><tspan font-size="83" x="1569.43" y="198">className</tspan>. <tspan font-weight="700" font-size="83" x="0" y="-176">className_to_friendlyName</tspan><tspan font-weight="700" font-size="83" x="985.76" y="-176">(</tspan><tspan font-weight="700" font-size="83" x="1011.54" y="-176">key</tspan><tspan font-weight="700" font-size="83" x="1128.28" y="-176">)</tspan></text><path d="M13.6134-6.87554 1409.11-6.87554 1409.11 194.805 1402.23 187.93 2790.85 187.93 2790.85 201.681 1395.36 201.681 1395.36 0 1402.23 6.87554 13.6134 6.87554ZM51.4024 30.0033-0.0318657 0 51.4024-30.0033C54.6824-31.9167 58.8924-30.8088 60.8058-27.5288 62.7191-24.2488 61.6112-20.0388 58.3312-18.1254L17.078 5.93895 17.078-5.93895 58.3312 18.1254C61.6112 20.0388 62.7191 24.2488 60.8058 27.5288 58.8924 30.8088 54.6824 31.9167 51.4024 30.0033ZM2753.06 164.802 2804.49 194.805 2753.06 224.809C2749.78 226.722 2745.57 225.614 2743.66 222.334 2741.74 219.054 2742.85 214.844 2746.13 212.931L2787.38 188.866 2787.38 200.744 2746.13 176.68C2742.85 174.767 2741.74 170.557 2743.66 167.277 2745.57 163.997 2749.78 162.889 2753.06 164.802Z" transform="matrix(1 0 0 -1 7127 3808.81)"/><path d="M7151.62 4038.18 9917.45 4049.1 9917.39 4062.85 7151.56 4051.93ZM7189.28 4075.21 7137.97 4045 7189.52 4015.2C7192.81 4013.3 7197.01 4014.42 7198.91 4017.71 7200.81 4021 7199.69 4025.2 7196.4 4027.1L7155.05 4051.01 7155.1 4039.13 7196.26 4063.36C7199.53 4065.28 7200.62 4069.5 7198.7 4072.77 7196.77 4076.04 7192.56 4077.13 7189.28 4075.21ZM9879.74 4025.83 9931.06 4056.03 9879.51 4085.83C9876.22 4087.73 9872.01 4086.61 9870.11 4083.32 9868.21 4080.03 9869.34 4075.83 9872.62 4073.93L9913.97 4050.03 9913.93 4061.9 9872.77 4037.68C9869.5 4035.75 9868.4 4031.54 9870.33 4028.26 9872.26 4024.99 9876.47 4023.9 9879.74 4025.83Z"/><text font-family="Calibri,Calibri_MSFontService,sans-serif" font-weight="400" font-size="83" transform="matrix(1 0 0 1 5244.76 4799)">Processes the returned list to a dictionary <tspan font-size="83" x="0" y="99">and manipulates instances and classifies </tspan><tspan font-size="83" x="0" y="198">Objects to easily readable data entries. The </tspan><tspan font-size="83" x="0" y="297">dictionaries are then returned.</tspan></text><path d="M4.39271e-06-6.87554 551.262-6.87519 551.262 6.87589-4.39271e-06 6.87554ZM513.472-30.003 564.906 0.000361611 513.472 30.0037C510.192 31.917 505.982 30.8091 504.068 27.5291 502.155 24.2491 503.263 20.0391 506.543 18.1258L547.796-5.9386 547.796 5.9393 506.543-18.1251C503.263-20.0385 502.155-24.2485 504.068-27.5285 505.982-30.8084 510.192-31.9163 513.472-30.003Z" transform="matrix(-1 0 0 1 5176.87 3337)"/><text font-family="Calibri,Calibri_MSFontService,sans-serif" font-weight="700" font-size="83" transform="matrix(1 0 0 1 3021.98 3052)">find_classes_layers_via_recusion(layer_dict, <tspan font-size="83" x="0" y="99">keys, freindly_layer_dict, depth)</tspan><tspan font-weight="400" font-size="83" x="0" y="297">Builds the data tree according to return.</tspan><tspan font-weight="400" font-size="83" x="0" y="396">Then calls itself on a layer deeper.</tspan><tspan font-weight="400" font-size="83" x="1130.87" y="396">. </tspan></text><path d="M0 0 161.264 0.000360892" stroke="#000000" stroke-width="13.7511" stroke-miterlimit="8" fill="none" fill-rule="evenodd" transform="matrix(-1 0 0 1 2975.26 3614)"/><path d="M0 0 0.000360892 479.368" stroke="#000000" stroke-width="13.7511" stroke-miterlimit="8" fill="none" fill-rule="evenodd" transform="matrix(1 0 0 -1 2811 3614.37)"/><path d="M2814 3128.12 2975.86 3128.12 2975.86 3141.88 2814 3141.88ZM2938.07 3105 2989.51 3135 2938.07 3165C2934.79 3166.92 2930.58 3165.81 2928.67 3162.53 2926.76 3159.25 2927.87 3155.04 2931.15 3153.13L2972.4 3129.06 2972.4 3140.94 2931.15 3116.87C2927.87 3114.96 2926.76 3110.75 2928.67 3107.47 2930.58 3104.19 2934.8 3103.08 2938.07 3105Z"/><text font-family="Calibri,Calibri_MSFontService,sans-serif" font-weight="700" font-size="83" transform="matrix(1 0 0 1 988.967 2310)">search(request)(selected class)</text><rect x="1002" y="2650" width="1357" height="382" fill="#E2F0D9"/><text font-family="Calibri,Calibri_MSFontService,sans-serif" font-weight="700" font-size="55" transform="matrix(1 0 0 1 1007.21 2743)">Generate_html_from_dict_via_recusion<tspan font-size="55" x="910.777" y="0">(</tspan>data_tree_dict<tspan font-size="55" x="1262.62" y="0">) </tspan><tspan font-weight="400" font-size="55" x="0" y="132">Generates the HTML code for each layer by calling itself </tspan><tspan font-weight="400" font-size="55" x="0" y="198">on each layer. Sets every layer in a different CSS class. </tspan><tspan font-weight="400" font-size="55" x="0" y="264">Lists instances as list elements. </tspan></text><path d="M0 0 134.086 0.000360892" stroke="#000000" stroke-width="13.7511" stroke-miterlimit="8" fill="none" fill-rule="evenodd" transform="matrix(-1 0 0 1 1002.09 2962)"/><path d="M0 0 0.000360892 220.13" stroke="#000000" stroke-width="13.7511" stroke-miterlimit="8" fill="none" fill-rule="evenodd" transform="matrix(1 0 0 -1 868 2962.13)"/><path d="M868 2735.12 988.472 2735.12 988.472 2748.88 868 2748.88ZM950.683 2712 1002.12 2742 950.683 2772C947.403 2773.92 943.193 2772.81 941.28 2769.53 939.366 2766.25 940.474 2762.04 943.754 2760.13L985.008 2736.06 985.008 2747.94 943.754 2723.87C940.474 2721.96 939.367 2717.75 941.28 2714.47 943.193 2711.19 947.403 2710.08 950.683 2712Z"/><text font-family="Calibri,Calibri_MSFontService,sans-serif" font-weight="400" font-size="73" transform="matrix(1 0 0 1 1020.78 3176)">Inserts the HTML code into the HTML <tspan font-size="73" x="0" y="88">template SurfTheOWL.html and serves it to </tspan><tspan font-size="73" x="0" y="176">the web browser. </tspan><tspan font-size="73" x="0" y="352">received ids and comments are inserted in </tspan><tspan font-size="73" x="0" y="440">html as tooltips </tspan><tspan font-size="73" x="0" y="616">Magnitueds</tspan><tspan font-size="73" x="370.104" y="616">are extracted and the unit and </tspan><tspan font-size="73" x="0" y="704">datatype are arranged beside each other in </tspan><tspan font-size="73" x="0" y="792">the html code </tspan><tspan font-size="83" x="2045.47" y="726">Processes the data tree to separate classified </tspan><tspan font-size="83" x="2045.47" y="825">objects into a special list</tspan><tspan font-size="83" x="2860.55" y="825">. </tspan><tspan font-size="83" x="2045.47" y="924">Orders the</tspan><tspan font-size="83" x="2424.17" y="924">tree</tspan><tspan font-size="83" x="2581.72" y="924">hierarchy </tspan><tspan font-size="83" x="2935.78" y="924">to meet the Kadi4Mate </tspan><tspan font-size="83" x="2045.47" y="1023">one. </tspan><tspan font-size="83" x="2045.47" y="1221">Then returns the data tree with </tspan><tspan font-size="83" x="3118.2" y="1221">freindlyNames</tspan><tspan font-size="83" x="3606.39" y="1221">.</tspan><tspan font-size="83" x="2045.47" y="1320">Gets and</tspan><tspan font-size="83" x="2362.86" y="1320">retunes</tspan><tspan font-size="83" x="2639.58" y="1320">the </tspan><tspan font-size="83" x="2770.78" y="1320">contectual</tspan><tspan font-size="83" x="3144.9" y="1320">type</tspan><tspan font-size="83" x="3313.33" y="1320">of</tspan><tspan font-size="83" x="3400.99" y="1320">the </tspan><tspan font-size="83" x="2045.47" y="1419">record. </tspan><tspan font-size="83" x="2045.47" y="1518">Also returns the </tspan><tspan font-size="83" x="2601.77" y="1518">id_dict</tspan><tspan font-size="83" x="2830.36" y="1518">,</tspan><tspan font-size="83" x="2869.9" y="1518">comment_dict</tspan><tspan font-size="83" x="3358.59" y="1518">, </tspan><tspan font-size="83" x="2045.47" y="1617">instances_comment_dict</tspan><tspan font-size="83" x="2888.8" y="1617">.</tspan></text><path d="M0 0 369.719 4.84426" stroke="#000000" stroke-width="13.7511" stroke-miterlimit="8" fill="none" fill-rule="evenodd" transform="matrix(1 0 0 -1 2553 4341.84)"/><path d="M10667.4 3235.98 9127.59 3231.91 9127.63 3218.16 10667.5 3222.23ZM9165.32 3255.14 9113.97 3225 9165.48 3195.13C9168.77 3193.23 9172.97 3194.35 9174.88 3197.63 9176.78 3200.92 9175.66 3205.12 9172.38 3207.03L9131.06 3230.98 9131.09 3219.11 9172.28 3243.28C9175.56 3245.2 9176.66 3249.41 9174.73 3252.69 9172.81 3255.96 9168.6 3257.06 9165.32 3255.14Z"/><path d="M10674.9 3212 10674.9 3409.68 10661.1 3409.68 10661.1 3212ZM10698 3371.89 10668 3423.32 10638 3371.89C10636.1 3368.61 10637.2 3364.4 10640.5 3362.48 10643.8 3360.57 10648 3361.68 10649.9 3364.96L10673.9 3406.21 10662.1 3406.21 10686.1 3364.96C10688 3361.68 10692.2 3360.57 10695.5 3362.48 10698.8 3364.4 10699.9 3368.61 10698 3371.89Z"/><path d="M11754.9 2859 11754.9 3852.22 11741.1 3852.22 11741.1 2859ZM11778 3814.43 11748 3865.87 11718 3814.43C11716.1 3811.15 11717.2 3806.94 11720.5 3805.03 11723.8 3803.12 11728 3804.23 11729.9 3807.51L11753.9 3848.76 11742.1 3848.76 11766.1 3807.51C11768 3804.23 11772.2 3803.12 11775.5 3805.03 11778.8 3806.94 11779.9 3811.15 11778 3814.43Z"/><path d="M9.42004e-07-6.87554 2620.53-6.87518 2620.53 6.8759-9.42004e-07 6.87554ZM2582.69-30.003 2634.13 0.00036044 2582.69 30.0037C2579.41 31.917 2575.2 30.8091 2573.29 27.5291 2571.38 24.2491 2572.49 20.0391 2575.77 18.1258L2617.02-5.93859 2617.02 5.93931 2575.77-18.1251C2572.49-20.0384 2571.38-24.2484 2573.29-27.5284 2575.2-30.8084 2579.41-31.9163 2582.69-30.003Z" transform="matrix(-1 0 0 1 11748.1 2859)"/><path d="M2.58029e-06-6.87554 948.04-6.87519 948.04 6.8759-2.58029e-06 6.87554ZM910.244-30.003 961.678 0.000359079 910.244 30.0037C906.964 31.917 902.754 30.8091 900.841 27.5291 898.927 24.2491 900.035 20.0391 903.315 18.1258L944.569-5.93859 944.569 5.9393 903.315-18.1251C900.035-20.0384 898.927-24.2484 900.841-27.5284 902.754-30.8084 906.964-31.9163 910.244-30.003Z" transform="matrix(-1 0 0 1 11011.6 4853)"/><path d="M6.87554-3.78379e-06 6.87589 642.168-6.87519 642.168-6.87554 3.78379e-06ZM30.0037 604.377 0.000358579 655.811-30.003 604.377C-31.9163 601.097-30.8084 596.887-27.5285 594.973-24.2485 593.06-20.0384 594.168-18.1251 597.448L5.9393 638.701-5.9386 638.701 18.1258 597.448C20.0391 594.168 24.2491 593.06 27.5291 594.973 30.8091 596.887 31.917 601.097 30.0037 604.377Z" transform="matrix(1 0 0 -1 11018 4859.78)"/><path d="M1.53867e-05-6.87554 147.651-6.87521 147.651 6.87587-1.53867e-05 6.87554ZM109.862-30.0031 161.296 0.000361499 109.862 30.0036C106.582 31.9169 102.372 30.809 100.459 27.529 98.5452 24.249 99.6532 20.039 102.933 18.1257L144.186-5.93862 144.186 5.93927 102.933-18.1252C99.6533-20.0386 98.5454-24.2486 100.459-27.5286 102.372-30.8085 106.582-31.9164 109.862-30.0031Z" transform="matrix(-1 0 0 1 2553.26 2559)"/><path d="M2553 2559 2553 4341.98" stroke="#000000" stroke-width="13.7511" stroke-miterlimit="8" fill="none" fill-rule="evenodd"/><path d="M0 0 423.545 0.000360892" stroke="#000000" stroke-width="13.7511" stroke-miterlimit="8" fill="none" fill-rule="evenodd" transform="matrix(-1 0 0 1 955.545 3244)"/><path d="M6.87554-3.36943e-06 6.8759 722.811-6.87519 722.811-6.87554 3.36943e-06ZM30.0037 685.022 0.0003594 736.457-30.003 685.022C-31.9163 681.742-30.8084 677.532-27.5285 675.619-24.2485 673.706-20.0384 674.814-18.1251 678.094L5.9393 719.347-5.93859 719.347 18.1258 678.094C20.0391 674.814 24.2491 673.706 27.5291 675.619 30.8091 677.532 31.917 681.742 30.0037 685.022Z" transform="matrix(1 0 0 -1 532 3240.42)"/><path d="M9912.83 1810.48 6961 1792" stroke="#000000" stroke-width="13.7511" stroke-miterlimit="8" fill="none" fill-rule="evenodd"/><path d="M6967.88 1794 6967.88 2963.27 6954.12 2963.27 6954.12 1794ZM6991 2925.48 6961 2976.92 6931 2925.48C6929.08 2922.2 6930.19 2917.99 6933.47 2916.08 6936.75 2914.17 6940.96 2915.27 6942.88 2918.55L6966.94 2959.81 6955.06 2959.81 6979.13 2918.55C6981.04 2915.27 6985.25 2914.17 6988.53 2916.08 6991.81 2917.99 6992.92 2922.2 6991 2925.48Z"/><rect x="3654" y="1445" width="484" height="145" fill="#F2F2F2"/><text font-family="Calibri,Calibri_MSFontService,sans-serif" font-weight="400" font-size="46" transform="matrix(1 0 0 1 3687.33 1505)">Called when the script <tspan font-size="46" x="0" y="55">is initialized. </tspan><tspan font-weight="700" font-size="55" x="-817.367" y="-207">get_all_classes_as_list</tspan><tspan font-weight="700" font-size="55" x="-306.898" y="-207">(</tspan><tspan font-weight="700" font-size="55" x="-289.711" y="-207">class_list</tspan><tspan font-weight="700" font-size="55" x="-86.8984" y="-207">)</tspan><tspan font-size="55" x="-817.367" y="-141">Returns all </tspan><tspan font-size="55" x="-567.003" y="-141">classes</tspan><tspan font-size="55" x="-399.138" y="-141">which</tspan><tspan font-size="55" x="-253.617" y="-141">a </tspan><tspan font-size="55" x="-214.659" y="-141">part</tspan><tspan font-size="55" x="-109.815" y="-141">of</tspan><tspan font-size="55" x="-51.3777" y="-141">TriboDataFAIR.owl</tspan><tspan font-size="55" x="365.706" y="-141">, </tspan><tspan font-size="55" x="-817.367" y="-75">saved</tspan><tspan font-size="55" x="-675.857" y="-75">in variable </tspan><tspan font-size="55" x="-431.794" y="-75">all_owl_classes</tspan><tspan font-weight="700" font-size="55" x="-812.435" y="209">get_searchable_classes_from_list(class_list)</tspan><tspan font-size="55" x="-812.435" y="275">Gets all related classes from Kadi4MateRecord as variable </tspan><tspan font-size="55" x="-812.435" y="341">searchable_owl_classes.</tspan></text><rect x="3857" y="1903" width="483" height="145" fill="#F2F2F2"/><text font-family="Calibri,Calibri_MSFontService,sans-serif" font-weight="400" font-size="46" transform="matrix(1 0 0 1 3889.68 1963)">Called when the script <tspan font-size="46" x="0" y="55">is initialized. </tspan></text><rect x="261" y="627" width="543" height="344" fill="#FFE699"/><text font-family="Calibri,Calibri_MSFontService,sans-serif" font-weight="400" font-size="83" transform="matrix(1 0 0 1 451.915 777)">Start <tspan font-size="83" x="-130.9" y="99">SurfTheOWL</tspan></text><rect x="1047" y="595" width="789" height="445" fill="#C5E0B4"/><text font-family="Calibri,Calibri_MSFontService,sans-serif" font-weight="700" font-size="83" transform="matrix(1 0 0 1 1079.54 795)">w<tspan font-size="83" x="61.3021" y="0">elcome</tspan>(request<tspan font-size="83" x="596.406" y="0">)</tspan></text><rect x="2842" y="421" width="793" height="157" fill="#B4C7E7"/><text font-family="Calibri,Calibri_MSFontService,sans-serif" font-weight="700" font-size="55" transform="matrix(1 0 0 1 2874.74 488)">OWL<tspan font-size="55" x="110.573" y="0">_master_name</tspan><tspan font-size="55" x="0" y="66">OWL_path</tspan></text><path d="M14.6574-4.22127 994.016 181.258 991.457 194.768 12.0988 9.28858ZM44.9181 39.0412-0.031306-0.00592953 56.0833-19.9128C59.6617-21.1822 63.5918-19.3104 64.8612-15.732 66.1307-12.1535 64.2589-8.22349 60.6804-6.95403L15.6733 9.01239 17.8834-2.65713 53.9354 28.6609C56.8018 31.151 57.107 35.4933 54.6169 38.3597 52.1268 41.2262 47.7845 41.5313 44.9181 39.0412ZM961.194 151.505 1006.14 190.552 950.029 210.459C946.451 211.729 942.521 209.857 941.251 206.278 939.982 202.7 941.854 198.77 945.432 197.5L990.439 181.534 988.229 193.204 952.177 161.886C949.311 159.395 949.005 155.053 951.495 152.187 953.986 149.32 958.328 149.015 961.194 151.505Z" transform="matrix(-1 0 0 1 2842.11 499)"/><rect x="2851" y="679" width="1285" height="244" fill="#F4B183"/><text font-family="Calibri,Calibri_MSFontService,sans-serif" font-weight="400" font-size="55" transform="matrix(1 0 0 1 2883.75 747)">FindDublicateIDs.py<tspan font-weight="700" font-size="55" x="0" y="66">c</tspan><tspan font-weight="700" font-size="55" x="22.9167" y="66">heck_ids</tspan><tspan font-weight="700" font-size="55" x="222.292" y="66">(</tspan><tspan font-weight="700" font-size="55" x="239.479" y="66">owl_file_path</tspan><tspan font-weight="700" font-size="55" x="556.875" y="66">)</tspan><tspan font-size="55" x="0" y="132">Return</tspan><tspan font-size="55" x="151.823" y="132">s a </tspan><tspan font-size="55" x="225.156" y="132">list</tspan><tspan font-size="55" x="303.073" y="132">with</tspan><tspan font-size="55" x="414.792" y="132">founded</tspan><tspan font-size="55" x="615.313" y="132">dublicate</tspan><tspan font-size="55" x="834.74" y="132">TDO </tspan>ids</text><path d="M13.7312-6.65653 1001.62 9.12442 1001.4 22.8727 13.5116 7.09172ZM50.9126 30.8181-0.0318586-0.000509113 51.871-29.1762C55.1809-31.0367 59.3723-29.8618 61.2329-26.552 63.0934-23.2421 61.9185-19.0506 58.6086-17.1901L16.9796 6.21048 17.1693-5.66497 58.0297 19.0533C61.2784 21.0186 62.3189 25.2455 60.3536 28.4942 58.3882 31.743 54.1614 32.7834 50.9126 30.8181ZM964.209-14.6021 1015.15 16.2165 963.25 45.3922C959.94 47.2527 955.749 46.0778 953.888 42.7679 952.028 39.4581 953.203 35.2666 956.513 33.4061L998.142 10.0055 997.952 21.8809 957.092-2.83735C953.843-4.80267 952.802-9.02951 954.768-12.2783 956.733-15.527 960.96-16.5675 964.209-14.6021Z" transform="matrix(1 0 0 -1 1836 817.216)"/><rect x="7658" y="6267" width="1485" height="297" fill="#8FAADC"/><text font-family="Calibri,Calibri_MSFontService,sans-serif" font-weight="700" font-size="73" transform="matrix(1 0 0 1 7690.72 6361)">get_comment_by_<tspan font-size="83" x="572.344" y="0">className</tspan><tspan font-size="73" x="936.146" y="0">(</tspan><tspan font-size="73" x="959.063" y="0">class_name</tspan><tspan font-size="73" x="1310.83" y="0">)</tspan><tspan font-weight="400" font-size="73" x="0" y="91">Returns </tspan><tspan font-weight="400" font-size="73" x="249.219" y="91">the</tspan><tspan font-weight="400" font-size="73" x="365.521" y="91">comment</tspan><tspan font-weight="400" font-size="73" x="668.594" y="91">of</tspan><tspan font-weight="400" font-size="73" x="746.51" y="91">a</tspan><tspan font-weight="400" font-size="73" x="798.073" y="91">given</tspan><tspan font-weight="400" font-size="73" x="973.959" y="91">class</tspan></text><rect x="7658" y="6701" width="1485" height="297" fill="#8FAADC"/><text font-family="Calibri,Calibri_MSFontService,sans-serif" font-weight="700" font-size="73" transform="matrix(1 0 0 1 7690.72 6795)">get_ID_by_<tspan font-size="83" x="347.188" y="0">className</tspan><tspan font-size="73" x="710.99" y="0">(</tspan><tspan font-size="73" x="733.907" y="0">class_name</tspan><tspan font-size="73" x="1085.68" y="0">)</tspan><tspan font-weight="400" font-size="73" x="0" y="91">Returns </tspan><tspan font-weight="400" font-size="73" x="249.219" y="91">the</tspan><tspan font-weight="400" font-size="73" x="365.521" y="91">TDO </tspan><tspan font-weight="400" font-size="73" x="511.615" y="91">id</tspan><tspan font-weight="400" font-size="73" x="583.229" y="91">of</tspan><tspan font-weight="400" font-size="73" x="661.146" y="91">a</tspan><tspan font-weight="400" font-size="73" x="712.709" y="91">given</tspan><tspan font-weight="400" font-size="73" x="888.594" y="91">class</tspan></text><path d="M7127.04 4500.12 7641.13 4503.48 7641.04 4517.23 7126.96 4513.88ZM7603.5 4480.1 7654.73 4510.44 7603.11 4540.1C7599.81 4542 7595.61 4540.86 7593.72 4537.57 7591.83 4534.28 7592.96 4530.07 7596.26 4528.18L7637.66 4504.39 7637.58 4516.27 7596.49 4491.94C7593.23 4490 7592.15 4485.78 7594.08 4482.52 7596.01 4479.25 7600.23 4478.17 7603.5 4480.1Z"/><path d="M13.6128-6.87499 516.924-6.87465 516.924 6.87535 13.6128 6.87501ZM51.3984 30.001-0.0318643-1.55425e-07 51.3984-30.0009C54.6781-31.9141 58.8878-30.8063 60.801-27.5266 62.7142-24.2468 61.6064-20.0372 58.3266-18.124L17.0766 5.93849 17.0766-5.93847 58.3266 18.1241C61.6063 20.0372 62.7141 24.2469 60.801 27.5267 58.8878 30.8064 54.6781 31.9142 51.3984 30.001ZM479.137-30.0007 530.568 0.000358694 479.137 30.0013C475.858 31.9145 471.648 30.8067 469.735 27.5269 467.821 24.2472 468.929 20.0375 472.209 18.1243L513.459-5.93813 513.459 5.93883 472.209-18.1237C468.929-20.0369 467.821-24.2466 469.735-27.5263 471.648-30.806 475.858-31.9138 479.137-30.0007Z" transform="matrix(-1 0 0 1 7657.54 6416)"/><path d="M13.6128-6.87499 505.799-6.87465 505.799 6.87535 13.6128 6.87501ZM51.3984 30.001-0.0318643-4.27882e-07 51.3984-30.0009C54.6781-31.9141 58.8878-30.8063 60.801-27.5266 62.7142-24.2468 61.6064-20.0372 58.3266-18.124L17.0766 5.93849 17.0766-5.93847 58.3266 18.1241C61.6063 20.0372 62.7141 24.2469 60.801 27.5267 58.8878 30.8064 54.6781 31.9142 51.3984 30.001ZM468.013-30.0007 519.443 0.000359437 468.013 30.0013C464.733 31.9145 460.524 30.8067 458.611 27.5269 456.697 24.2472 457.805 20.0375 461.085 18.1243L502.335-5.93813 502.335 5.93883 461.085-18.1237C457.805-20.0369 456.697-24.2466 458.611-27.5263 460.524-30.806 464.733-31.9138 468.013-30.0007Z" transform="matrix(-1 0 0 1 7657.41 6850)"/><path d="M6741.41 7116.53 6741.41 7513.27 6734.54 7506.39 7641.67 7506.39 7641.67 7520.14 6727.66 7520.14 6727.66 7116.53ZM6700.65 7150.88 6736 7102.97 6760.31 7157.32C6761.86 7160.79 6760.3 7164.86 6756.84 7166.41 6753.37 7167.96 6749.31 7166.4 6747.76 7162.94L6728.26 7119.34 6740.07 7120.62 6711.72 7159.04C6709.46 7162.1 6705.16 7162.75 6702.1 7160.49 6699.05 7158.24 6698.4 7153.94 6700.65 7150.88ZM7603.87 7483.26 7655.3 7513.27 7603.87 7543.27C7600.59 7545.18 7596.38 7544.07 7594.47 7540.79 7592.56 7537.51 7593.67 7533.3 7596.94 7531.39L7638.19 7507.33 7638.19 7519.2 7596.94 7495.14C7593.67 7493.23 7592.56 7489.02 7594.47 7485.74 7596.38 7482.46 7600.59 7481.35 7603.87 7483.26Z"/><path d="M13.5687-6.875 2774.41-6.875 2774.41 3656.91 2760.66 3656.91 2760.66 0 2767.54 6.875 13.5687 6.875ZM51.3984 30.001-0.0318643 0 51.3984-30.001C54.6781-31.9142 58.8878-30.8063 60.801-27.5266 62.7142-24.2469 61.6063-20.0372 58.3266-18.124L17.0766 5.93848 17.0766-5.93848 58.3266 18.124C61.6063 20.0372 62.7142 24.2469 60.801 27.5266 58.8878 30.8063 54.6781 31.9142 51.3984 30.001ZM2797.54 3619.14 2767.54 3670.57 2737.54 3619.14C2735.62 3615.86 2736.73 3611.65 2740.01 3609.74 2743.29 3607.83 2747.5 3608.93 2749.41 3612.21L2773.47 3653.46 2761.6 3653.46 2785.66 3612.21C2787.57 3608.93 2791.78 3607.83 2795.06 3609.74 2798.34 3611.65 2799.45 3615.86 2797.54 3619.14Z" transform="matrix(1.83697e-16 1 1 -1.83697e-16 3984 4932)"/></g></svg>