<svg width="4961" height="2104" xmlns="http://www.w3.org/2000/svg" xmlns:xlink="http://www.w3.org/1999/xlink" overflow="hidden"><defs><clipPath id="clip0"><rect x="81" y="-247" width="4961" height="2104"/></clipPath></defs><g clip-path="url(#clip0)" transform="translate(-81 247)"><rect x="83" y="179" width="159" height="100" fill="#FFE699"/><text font-family="Calibri,Calibri_MSFontService,sans-serif" font-weight="400" font-size="24" transform="translate(139.066 222)">Start <tspan font-size="24" x="-38.08" y="29">SurfTheOWL</tspan></text><rect x="312" y="179" width="195" height="129" fill="#C5E0B4"/><text font-family="Calibri,Calibri_MSFontService,sans-serif" font-weight="700" font-size="24" transform="translate(321.648 213)">landing<tspan font-size="24" x="73.3333" y="0">(</tspan>request)<tspan font-weight="400" font-size="13" x="0" y="19">Insets the elements of </tspan><tspan font-weight="400" font-size="13" x="0" y="35">searchabel_owl_classes</tspan><tspan font-weight="400" font-size="13" x="131.5" y="35">in the </tspan><tspan font-weight="400" font-size="13" x="0" y="51">select fields. </tspan></text><rect x="295" y="28" width="493" height="74" fill="#C5E0B4"/><text font-family="Calibri,Calibri_MSFontService,sans-serif" font-weight="400" font-size="53" transform="translate(304.555 83)">views.py </text><path d="M0.0308459-1.99992 66.5293-0.974275 66.4676 3.02556-0.0308459 1.99992ZM55.6412-7.8711 70.4675 1.08686 55.372 9.58332C54.4094 10.1251 53.1897 9.78399 52.6479 8.82135 52.1061 7.8587 52.4472 6.63908 53.4099 6.09726L65.5174-0.717386 65.4641 2.73759 53.5725-4.44721C52.627-5.01846 52.3237-6.24801 52.8949-7.1935 53.4662-8.13898 54.6957-8.44235 55.6412-7.8711Z" transform="matrix(1 0 0 -1 242 229.087)"/><rect x="825" y="31" width="4216" height="74" fill="#8FAADC"/><text font-family="Calibri,Calibri_MSFontService,sans-serif" font-weight="400" font-size="53" transform="translate(834.9 86)">SurfTheOWL.py</text><rect x="841" y="112" width="378" height="116" fill="#B4C7E7"/><rect x="839" y="244" width="439" height="119" fill="#B4C7E7"/><path d="M508 262 835.861 262 835.861 266 508 266ZM824.868 255.272 839.83 264 824.868 272.728C823.913 273.285 822.689 272.963 822.132 272.008 821.575 271.054 821.898 269.83 822.852 269.273L834.853 262.272 834.853 265.728 822.852 258.727C821.898 258.171 821.575 256.946 822.132 255.992 822.689 255.038 823.913 254.715 824.868 255.272Z"/><path d="M0.00662775-2.00015 326.187-0.919306 326.173 3.08099-0.00662775 2.00015ZM315.216-7.68378 330.149 1.09399 315.158 9.77261C314.202 10.326 312.978 9.9997 312.425 9.04368 311.871 8.08766 312.198 6.864 313.154 6.31056L325.178-0.650183 325.166 2.80519 313.189-4.23509C312.236-4.79486 311.918-6.02065 312.478-6.97298 313.038-7.92531 314.263-8.24355 315.216-7.68378Z" transform="matrix(-1 0 0 1 839.14 304)"/><path d="M2.98031e-06-2.00016 66.499-2.00006 66.499 2.00026-2.98031e-06 2.00016ZM55.5058-8.72816 70.4685 0.000104975 55.5058 8.72833C54.5516 9.28493 53.3269 8.96263 52.7702 8.00845 52.2136 7.05427 52.5359 5.82954 53.4901 5.27294L65.4911-1.7276 65.4911 1.72779 53.4901-5.27278C52.536-5.82938 52.2137-7.05412 52.7703-8.00829 53.3269-8.96247 54.5516-9.28477 55.5058-8.72816Z" transform="matrix(-1 0 0 1 312.459 262)"/><rect x="83" y="390" width="159" height="100" fill="#FFE699"/><text font-family="Calibri,Calibri_MSFontService,sans-serif" font-weight="400" font-size="24" transform="translate(111.732 419)">Select one <tspan font-size="24" x="-15.58" y="29">class an press </tspan><tspan font-size="24" x="12.0867" y="58">SEARCH </tspan></text><rect x="286" y="390" width="417" height="367" fill="#C5E0B4"/><path d="M93.0145 144.131 93.0149-226.991 231.959-226.991 231.958 144.132Z" fill="#FFE699" fill-rule="evenodd"/><text font-family="Calibri,Calibri_MSFontService,sans-serif" font-weight="400" font-size="53" transform="matrix(1.16355e-06 -1 1 1.16355e-06 147.814 135)">Webbrowser <tspan font-size="53" x="7.44674e-05" y="64">HTML template </tspan></text><rect x="858" y="420" width="617" height="657" fill="#8FAADC"/><rect x="873" y="622" width="476" height="216" fill="#B4C7E7"/><text font-family="Calibri,Calibri_MSFontService,sans-serif" font-weight="700" font-size="24" transform="translate(882.588 533)">main_search(selected class)</text><path d="M242 427 282.15 427 282.15 431 242 431ZM271.157 420.272 286.119 429 271.157 437.728C270.202 438.285 268.978 437.963 268.421 437.008 267.864 436.054 268.187 434.83 269.141 434.273L281.142 427.272 281.142 430.728 269.141 423.727C268.187 423.171 267.865 421.946 268.421 420.992 268.978 420.038 270.202 419.715 271.157 420.272Z"/><path d="M703 453 853.508 453 853.508 457 703 457ZM842.515 446.272 857.477 455 842.514 463.728C841.56 464.285 840.336 463.963 839.779 463.008 839.222 462.054 839.545 460.83 840.499 460.273L852.5 453.272 852.5 456.728 840.499 449.727C839.545 449.171 839.222 447.946 839.779 446.992 840.336 446.038 841.56 445.715 842.515 446.272Z"/><rect x="1514" y="623" width="567" height="901" fill="#8FAADC"/><path d="M1349 689 1503.93 689 1503.93 693 1349 693ZM1492.94 682.272 1507.9 691 1492.94 699.728C1491.98 700.285 1490.76 699.963 1490.2 699.008 1489.65 698.054 1489.97 696.83 1490.92 696.273L1502.92 689.272 1502.92 692.728 1490.92 685.727C1489.97 685.171 1489.65 683.946 1490.2 682.992 1490.76 682.038 1491.98 681.715 1492.94 682.272Z"/><rect x="2411" y="480" width="248" height="333" fill="#8FAADC"/><text font-family="Calibri,Calibri_MSFontService,sans-serif" font-weight="700" font-size="24" transform="translate(2420.13 525)">end_of_entries<tspan font-size="24" x="150.947" y="0">(</tspan>key<tspan font-size="24" x="192.407" y="0">)</tspan><tspan font-weight="400" font-size="24" x="0" y="58">Retunrs</tspan><tspan font-weight="400" font-size="24" x="80.54" y="58">true</tspan><tspan font-weight="400" font-size="24" x="121.54" y="58">, </tspan><tspan font-weight="400" font-size="24" x="133.04" y="58">if</tspan><tspan font-weight="400" font-size="24" x="151.373" y="58">no</tspan><tspan font-weight="400" font-size="24" x="0" y="87">subclasses</tspan><tspan font-weight="400" font-size="24" x="107.333" y="87">are</tspan><tspan font-weight="400" font-size="24" x="144.353" y="87">defined</tspan><tspan font-weight="400" font-size="24" x="0" y="116">from</tspan><tspan font-weight="400" font-size="24" x="52.6133" y="116">a </tspan><tspan font-weight="400" font-size="24" x="69.6133" y="116">given</tspan><tspan font-weight="400" font-size="24" x="0" y="144">classname</tspan><tspan font-weight="400" font-size="24" x="101.167" y="144">. This </tspan><tspan font-weight="400" font-size="24" x="157.333" y="144">is</tspan><tspan font-weight="400" font-size="24" x="177.667" y="144">the</tspan><tspan font-weight="400" font-size="24" x="0" y="173">case</tspan><tspan font-weight="400" font-size="24" x="42.8" y="173">, </tspan><tspan font-weight="400" font-size="24" x="54.3" y="173">when</tspan><tspan font-weight="400" font-size="24" x="114.3" y="173">the</tspan><tspan font-weight="400" font-size="24" x="152.467" y="173">name</tspan><tspan font-weight="400" font-size="24" x="0" y="202">points</tspan><tspan font-weight="400" font-size="24" x="66.1133" y="202">to</tspan><tspan font-weight="400" font-size="24" x="92.0466" y="202">another</tspan><tspan font-weight="400" font-size="24" x="0" y="231">object</tspan><tspan font-weight="400" font-size="24" x="66.6667" y="231">or</tspan><tspan font-weight="400" font-size="24" x="93.1667" y="231">an </tspan><tspan font-weight="400" font-size="24" x="122.833" y="231">instance</tspan><tspan font-weight="400" font-size="24" x="0" y="260">or</tspan><tspan font-weight="400" font-size="24" x="26.5" y="260">no</tspan><tspan font-weight="400" font-size="24" x="57.3333" y="260">subclass</tspan><tspan font-weight="400" font-size="24" x="143.333" y="260">is</tspan><tspan font-weight="400" font-size="24" x="163.667" y="260">found</tspan><tspan font-weight="400" font-size="24" x="221.16" y="260">. </tspan></text><rect x="2897" y="886" width="632" height="111" fill="#8FAADC"/><text font-family="Calibri,Calibri_MSFontService,sans-serif" font-weight="700" font-size="24" transform="translate(2906.32 920)">is_class_datatype(key)<tspan font-weight="400" font-size="24" x="0" y="58">Retuns true, if key is a classified instance</tspan></text><rect x="2897" y="757" width="428" height="111" fill="#8FAADC"/><text font-family="Calibri,Calibri_MSFontService,sans-serif" font-weight="700" font-size="24" transform="translate(2906.41 791)">is_class_refere_other_object(key)<tspan font-weight="400" font-size="24" x="0" y="58">Retuns true, if key is a classified Object</tspan></text><rect x="2891" y="170" width="565" height="236" fill="#8FAADC"/><text font-family="Calibri,Calibri_MSFontService,sans-serif" font-weight="400" font-size="24" transform="translate(2900.92 267)">Extracts all subclasses, instances and Objects from the <tspan font-size="24" x="0" y="29">OWL of a given </tspan><tspan font-size="24" x="152.673" y="29">Classname</tspan><tspan font-size="24" x="256.507" y="29">(Key). These are returned as </tspan><tspan font-size="24" x="0" y="58">a list. </tspan></text><path d="M0.798336-1.83393 326.735 140.051 325.139 143.719-0.798336 1.83393ZM319.337 129.493 329.573 143.468 312.37 145.499C311.273 145.628 310.278 144.844 310.149 143.747 310.019 142.65 310.804 141.655 311.901 141.526L325.699 139.897 324.319 143.065 316.11 131.857C315.457 130.965 315.651 129.714 316.542 129.061 317.433 128.408 318.685 128.602 319.337 129.493Z" transform="matrix(1 0 0 -1 2081 717.464)"/><path d="M0.75657-1.85155 326.655 131.315 325.142 135.018-0.75657 1.85155ZM319.023 120.929 329.573 134.668 312.42 137.088C311.326 137.243 310.315 136.481 310.16 135.387 310.006 134.293 310.768 133.282 311.861 133.127L325.619 131.186 324.312 134.385 315.85 123.365C315.178 122.489 315.343 121.233 316.219 120.561 317.095 119.888 318.351 120.053 319.023 120.929Z" transform="matrix(-1 0 0 1 2410.56 515)"/><path d="M1552 838.5 1724 717 1896 838.5 1724 960Z" fill="#B4C7E7" fill-rule="evenodd"/><text font-family="Calibri,Calibri_MSFontService,sans-serif" font-weight="700" font-size="24" transform="translate(1697.11 832)">If not <tspan font-size="24" x="-48.72" y="29">end_of_entries</tspan><tspan font-size="24" x="-167.526" y="-139">children(key)</tspan><tspan font-size="24" x="1217.04" y="-612">search_class</tspan><tspan font-size="24" x="1340.03" y="-612">(</tspan>key)<tspan font-weight="400" font-size="24" x="212.072" y="-5">Yes</tspan></text><rect x="3668" y="172" width="518" height="236" fill="#8FAADC"/><text font-family="Calibri,Calibri_MSFontService,sans-serif" font-weight="700" font-size="24" transform="translate(3677.3 255)">property_restiction_in_string<tspan font-size="24" x="291.073" y="0">(</tspan>OWL_class_string<tspan font-size="24" x="473.18" y="0">)</tspan><tspan font-weight="400" font-size="24" x="0" y="58">Detects owl properties and returns them. If no </tspan><tspan font-weight="400" font-size="24" x="0" y="87">property in a </tspan><tspan font-weight="400" font-size="24" x="131.28" y="87">string</tspan><tspan font-weight="400" font-size="24" x="191.68" y="87">the return is false. </tspan></text><rect x="4451" y="172" width="536" height="236" fill="#8FAADC"/><text font-family="Calibri,Calibri_MSFontService,sans-serif" font-weight="700" font-size="24" transform="translate(4461.09 226)">check_for_special_restriction<tspan font-size="24" x="290.773" y="0">(</tspan>OWL_class_string<tspan font-size="24" x="472.88" y="0">)</tspan><tspan font-weight="400" font-size="24" x="0" y="58">If</tspan><tspan font-weight="400" font-size="24" x="18.8335" y="58">the</tspan><tspan font-weight="400" font-size="24" x="57" y="58">OWL_string</tspan><tspan font-weight="400" font-size="24" x="176.474" y="58">contains</tspan><tspan font-weight="400" font-size="24" x="263.76" y="58">a not in owlready2 </tspan><tspan font-weight="400" font-size="24" x="0" y="87">implemented</tspan><tspan font-weight="400" font-size="24" x="136.354" y="87">property</tspan><tspan font-weight="400" font-size="24" x="226.967" y="87">the</tspan><tspan font-weight="400" font-size="24" x="265.134" y="87">pointed</tspan><tspan font-weight="400" font-size="24" x="346.32" y="87">instance</tspan><tspan font-weight="400" font-size="24" x="433.094" y="87">is</tspan><tspan font-weight="400" font-size="24" x="0" y="116">retuned</tspan><tspan font-weight="400" font-size="24" x="83.3936" y="116">classified</tspan><tspan font-weight="400" font-size="24" x="177.727" y="116">with</tspan><tspan font-weight="400" font-size="24" x="226.56" y="116">(&lt;</tspan><tspan font-weight="400" font-size="24" x="245.894" y="116">class</tspan><tspan font-weight="400" font-size="24" x="297.227" y="116">…&gt;). </tspan><tspan font-weight="400" font-size="24" x="344.56" y="116">Current</tspan><tspan font-weight="400" font-size="24" x="424.36" y="116">this</tspan><tspan font-weight="400" font-size="24" x="465.36" y="116">is</tspan><tspan font-weight="400" font-size="24" x="0" y="144">the</tspan><tspan font-weight="400" font-size="24" x="38.167" y="144">case</tspan><tspan font-weight="400" font-size="24" x="86.4668" y="144">for</tspan><tspan font-weight="400" font-size="24" x="119.793" y="144">property</tspan><tspan font-weight="400" font-size="24" x="210.407" y="144">„</tspan><tspan font-weight="400" font-size="24" x="220.407" y="144">hasTimeStamp</tspan><tspan font-weight="400" font-size="24" x="364.02" y="144">“</tspan></text><rect x="4451" y="467" width="571" height="237" fill="#8FAADC"/><text font-family="Calibri,Calibri_MSFontService,sans-serif" font-weight="700" font-size="24" transform="translate(4461.09 536)">check_for_object_refer<tspan font-size="24" x="230.947" y="0">(</tspan>OWL_class_string<tspan font-size="24" x="413.054" y="0">)</tspan><tspan font-weight="400" font-size="24" x="0" y="58">If the OWL points on another defined </tspan><tspan font-weight="400" font-size="24" x="369.974" y="58">Object</tspan><tspan font-weight="400" font-size="24" x="439.807" y="58">the </tspan><tspan font-weight="400" font-size="24" x="0" y="87">function returns the object and classifies it (&lt;object …&gt;). </tspan><tspan font-weight="400" font-size="24" x="0" y="116">If not, the return is false. </tspan></text><path d="M1724 958 1981.3 958 1981.3 1052.71 1979.3 1050.71 2230.65 1050.71 2230.65 1054.71 1977.3 1054.71 1977.3 960 1979.3 962 1724 962ZM2219.65 1043.98 2234.62 1052.71 2219.65 1061.44C2218.7 1061.99 2217.48 1061.67 2216.92 1060.72 2216.36 1059.76 2216.68 1058.54 2217.64 1057.98L2229.64 1050.98 2229.64 1054.44 2217.64 1047.44C2216.68 1046.88 2216.36 1045.65 2216.92 1044.7 2217.48 1043.75 2218.7 1043.42 2219.65 1043.98Z"/><rect x="2234" y="1045" width="697" height="508" fill="#8FAADC"/><text font-family="Calibri,Calibri_MSFontService,sans-serif" font-weight="700" font-size="24" transform="translate(2255.35 1079)">get_data_instance(key)</text><path d="M0-2.00016 90.3518-2.00016 90.3518 610.809 88.3516 608.809 1004.73 608.809 1004.73 612.809 86.3514 612.809 86.3514 0 88.3516 2.00016 0 2.00016ZM993.745 602.08 1008.71 610.809 993.745 619.537C992.791 620.094 991.566 619.771 991.01 618.817 990.453 617.863 990.776 616.638 991.73 616.081L1003.73 609.081 1003.73 612.536 991.73 605.536C990.776 604.979 990.453 603.755 991.01 602.8 991.566 601.846 992.791 601.524 993.745 602.08Z" transform="matrix(1 0 0 -1 1895 844.809)"/><path d="M2267 1247 2463 1145 2659 1247 2463 1349Z" fill="#B4C7E7" fill-rule="evenodd"/><text font-family="Calibri,Calibri_MSFontService,sans-serif" font-weight="700" font-size="24" transform="translate(2436.06 1240)">If not <tspan font-size="24" x="-60.5798" y="29">is_class_datatype</tspan></text><path d="M2465 1349 2465 1419.74 2461 1419.74 2461 1349ZM2471.73 1408.75 2463 1423.71 2454.27 1408.75C2453.72 1407.79 2454.04 1406.57 2454.99 1406.01 2455.95 1405.45 2457.17 1405.78 2457.73 1406.73L2464.73 1418.73 2461.27 1418.73 2468.27 1406.73C2468.83 1405.78 2470.05 1405.45 2471.01 1406.01 2471.96 1406.57 2472.28 1407.79 2471.73 1408.75Z"/><text font-family="Calibri,Calibri_MSFontService,sans-serif" font-weight="400" font-size="24" transform="translate(2479.95 1387)">Yes<tspan font-size="24" x="-224.028" y="97">Extracts the defined instances from the OWL of a given </tspan><tspan font-size="24" x="-224.028" y="126">class., mostly …Units.</tspan><tspan font-size="24" x="-729.62" y="-403">No</tspan></text><path d="M3.96028-2.00016 118.161-2.00016 118.161 139.842 116.16 137.842 228.361 137.842 228.361 141.842 114.16 141.842 114.16 0 116.16 2.00016 3.96028 2.00016ZM14.9534 8.72824-0.00927001 0 14.9534-8.72824C15.9076-9.28485 17.1323-8.96255 17.6889-8.00837 18.2456-7.05419 17.9233-5.82946 16.9691-5.27286L4.96813 1.72769 4.96813-1.72769 16.9691 5.27286C17.9233 5.82946 18.2456 7.05419 17.6889 8.00837 17.1323 8.96255 15.9076 9.28485 14.9534 8.72824ZM217.367 131.114 232.33 139.842 217.367 148.57C216.413 149.127 215.189 148.805 214.632 147.851 214.075 146.896 214.398 145.672 215.352 145.115L227.353 138.115 227.353 141.57 215.352 134.569C214.398 134.013 214.075 132.788 214.632 131.834 215.189 130.88 216.413 130.557 217.367 131.114Z" transform="matrix(1 0 0 -1 2659 490.842)"/><text font-family="Calibri,Calibri_MSFontService,sans-serif" font-weight="400" font-size="24" transform="translate(2690.54 471)">Not</text><rect x="3237" y="1334" width="494" height="190" fill="#B4C7E7"/><text font-family="Calibri,Calibri_MSFontService,sans-serif" font-weight="700" font-size="24" transform="translate(3246.62 1379)">bad_letter_in_string<tspan font-size="24" x="202.493" y="0">(</tspan>string<tspan font-size="24" x="266.06" y="0">)</tspan><tspan font-weight="400" font-size="24" x="0" y="58">Non</tspan><tspan font-weight="400" font-size="24" x="40.8333" y="58">-</tspan><tspan font-weight="400" font-size="24" x="48.1665" y="58">ececutable</tspan><tspan font-weight="400" font-size="24" x="160.04" y="58">letters are detected, these are </tspan><tspan font-weight="400" font-size="24" x="459.46" y="58">-</tspan><tspan font-weight="400" font-size="24" x="466.793" y="58">, </tspan><tspan font-weight="400" font-size="24" x="0" y="87">., and a digit at the start of a String. If a bad </tspan><tspan font-weight="400" font-size="24" x="0" y="116">letter is detected return is true.</tspan></text><path d="M2931.01 1359 3235.35 1360.61 3235.33 1364.61 2930.99 1363ZM3224.4 1353.83 3239.31 1362.63 3224.3 1371.28C3223.35 1371.83 3222.12 1371.5 3221.57 1370.55 3221.02 1369.59 3221.35 1368.37 3222.31 1367.82L3234.34 1360.88 3234.32 1364.33 3222.36 1357.27C3221.41 1356.71 3221.09 1355.48 3221.66 1354.53 3222.22 1353.58 3223.44 1353.26 3224.4 1353.83Z"/><path d="M6.83889e-07-2.00016 303.093-2.00005 303.093 2.00026-6.83889e-07 2.00016ZM292.1-8.72815 307.062 0.000104591 292.1 8.72834C291.146 9.28495 289.921 8.96265 289.364 8.00847 288.808 7.05429 289.13 5.82956 290.084 5.27296L302.085-1.72759 302.085 1.7278 290.084-5.27276C289.13-5.82936 288.808-7.05409 289.364-8.00827 289.921-8.96245 291.146-9.28475 292.1-8.72815Z" transform="matrix(-1 0 0 1 3237.05 1458)"/><path d="M4189.96 209 4320.84 209 4320.84 290.37 4318.84 288.37 4447.73 288.37 4447.73 292.37 4316.84 292.37 4316.84 211 4318.84 213 4189.96 213ZM4200.95 219.728 4185.99 211 4200.95 202.272C4201.91 201.715 4203.13 202.037 4203.69 202.992 4204.25 203.946 4203.92 205.171 4202.97 205.727L4190.97 212.728 4190.97 209.272 4202.97 216.273C4203.92 216.829 4204.25 218.054 4203.69 219.008 4203.13 219.963 4201.91 220.285 4200.95 219.728ZM4436.74 281.642 4451.7 290.37 4436.74 299.098C4435.78 299.655 4434.56 299.332 4434 298.378 4433.44 297.424 4433.77 296.199 4434.72 295.643L4446.72 288.642 4446.72 292.098 4434.72 285.097C4433.77 284.54 4433.44 283.316 4434 282.362 4434.56 281.407 4435.78 281.085 4436.74 281.642Z"/><path d="M4189.96 360 4320.84 360 4320.84 585.843 4318.84 583.843 4447.73 583.843 4447.73 587.843 4316.84 587.843 4316.84 362 4318.84 364 4189.96 364ZM4200.95 370.728 4185.99 362 4200.95 353.272C4201.91 352.715 4203.13 353.037 4203.69 353.992 4204.25 354.946 4203.92 356.171 4202.97 356.727L4190.97 363.728 4190.97 360.272 4202.97 367.273C4203.92 367.829 4204.25 369.054 4203.69 370.008 4203.13 370.963 4201.91 371.285 4200.95 370.728ZM4436.73 577.115 4451.7 585.843 4436.73 594.571C4435.78 595.128 4434.56 594.806 4434 593.851 4433.44 592.897 4433.77 591.672 4434.72 591.116L4446.72 584.115 4446.72 587.571 4434.72 580.57C4433.77 580.014 4433.44 578.789 4434 577.835 4434.56 576.88 4435.78 576.558 4436.73 577.115Z"/><path d="M3456 216 3663.71 216 3663.71 220 3456 220ZM3652.72 209.272 3667.68 218 3652.72 226.728C3651.76 227.285 3650.54 226.963 3649.98 226.008 3649.43 225.054 3649.75 223.83 3650.7 223.273L3662.7 216.272 3662.7 219.728 3650.7 212.727C3649.75 212.171 3649.43 210.946 3649.98 209.992 3650.54 209.038 3651.76 208.715 3652.72 209.272Z"/><path d="M3667.65 292.191 3459.94 290.041 3459.98 286.041 3667.69 288.191ZM3470.86 296.883 3455.99 288 3471.04 279.427C3472 278.88 3473.22 279.215 3473.77 280.175 3474.32 281.135 3473.98 282.356 3473.02 282.903L3460.95 289.779 3460.99 286.324 3472.91 293.448C3473.86 294.015 3474.17 295.243 3473.6 296.191 3473.04 297.139 3471.81 297.449 3470.86 296.883Z"/><path d="M1.3679e-06-2.00016 149.552-2.00006 149.552 2.00026-1.3679e-06 2.00016ZM138.559-8.72815 153.522 0.000105292 138.559 8.72834C137.605 9.28494 136.38 8.96264 135.824 8.00847 135.267 7.05429 135.589 5.82956 136.544 5.27295L148.545-1.72759 148.545 1.7278 136.544-5.27276C135.589-5.82937 135.267-7.0541 135.824-8.00828 136.38-8.96246 137.605-9.28476 138.559-8.72815Z" transform="matrix(-1 0 0 1 2234.51 1145)"/><rect x="2234" y="1652" width="696" height="204" fill="#8FAADC"/><text font-family="Calibri,Calibri_MSFontService,sans-serif" font-weight="400" font-size="24" transform="translate(2244.08 1733)">Extracts the <tspan font-size="24" x="120.58" y="0">friendlyName</tspan><tspan font-size="24" x="259.08" y="0">of a given </tspan><tspan font-size="24" x="359.18" y="0">className</tspan><tspan font-size="24" x="468.68" y="0">from the OWL. If no </tspan><tspan font-size="24" x="0" y="29">friendlyName</tspan><tspan font-size="24" x="138.5" y="29">is defined the </tspan><tspan font-size="24" x="277.12" y="29">className</tspan><tspan font-size="24" x="386.62" y="29">is classified as problematic. </tspan><tspan font-size="24" x="0" y="58">The retune is the </tspan><tspan font-size="24" x="171.06" y="58">frindlyName</tspan><tspan font-size="24" x="297.56" y="58">or the classified </tspan>className. <tspan font-weight="700" font-size="24" x="5.98071" y="-44">className_to_friendlyName(key)</tspan></text><path d="M3.95879-2.00016 732.482-2.00016 732.482 56.6707 730.482 54.6705 811.883 54.6705 811.883 58.6708 728.481 58.6708 728.481 0 730.482 2.00016 3.95879 2.00016ZM14.9534 8.72824-0.00927001 0 14.9534-8.72824C15.9076-9.28485 17.1323-8.96255 17.6889-8.00837 18.2456-7.05419 17.9233-5.82946 16.9691-5.27286L4.96813 1.72769 4.96813-1.72769 16.9691 5.27286C17.9233 5.82946 18.2456 7.05419 17.6889 8.00837 17.1323 8.96255 15.9076 9.28485 14.9534 8.72824ZM800.89 47.9424 815.853 56.6707 800.89 65.3989C799.936 65.9555 798.711 65.6332 798.155 64.679 797.598 63.7248 797.92 62.5001 798.874 61.9435L810.875 54.943 810.875 58.3983 798.874 51.3978C797.92 50.8412 797.598 49.6165 798.155 48.6623 798.711 47.7081 799.936 47.3858 800.89 47.9424Z" transform="matrix(1 0 0 -1 2081 869.671)"/><path d="M2087.96 936.015 2892.57 939.193 2892.55 943.194 2087.95 940.016ZM2098.92 946.787 2083.99 938 2098.99 929.331C2099.94 928.778 2101.17 929.105 2101.72 930.062 2102.27 931.018 2101.95 932.241 2100.99 932.794L2088.96 939.747 2088.97 936.292 2100.95 943.34C2101.9 943.9 2102.22 945.126 2101.66 946.078 2101.1 947.03 2099.87 947.348 2098.92 946.787ZM2881.6 932.422 2896.53 941.209 2881.53 949.878C2880.57 950.431 2879.35 950.104 2878.8 949.148 2878.24 948.191 2878.57 946.968 2879.53 946.415L2891.56 939.462 2891.54 942.917 2879.57 935.869C2878.62 935.309 2878.3 934.083 2878.86 933.131 2879.42 932.179 2880.65 931.862 2881.6 932.422Z"/><text font-family="Calibri,Calibri_MSFontService,sans-serif" font-weight="400" font-size="24" transform="translate(1533.35 1157)">Processes the returned list to a dictionary <tspan font-size="24" x="0" y="29">and manipulates instances and classifies </tspan><tspan font-size="24" x="0" y="58">Objects to easily readable data entries. The </tspan><tspan font-size="24" x="0" y="87">dictionaries are then returned.</tspan></text><path d="M1.27788e-06-2.00016 160.367-2.00005 160.367 2.00026-1.27788e-06 2.00016ZM149.374-8.72815 164.336 0.000105196 149.374 8.72834C148.419 9.28494 147.195 8.96265 146.638 8.00847 146.081 7.05429 146.404 5.82956 147.358 5.27295L159.359-1.72759 159.359 1.7278 147.358-5.27276C146.404-5.82937 146.081-7.0541 146.638-8.00828 147.195-8.96246 148.419-9.28475 149.374-8.72815Z" transform="matrix(-1 0 0 1 1513.33 732)"/><text font-family="Calibri,Calibri_MSFontService,sans-serif" font-weight="700" font-size="24" transform="translate(886.723 649)">find_classes_layers_via_recusion<tspan font-size="24" x="326.407" y="0">(</tspan>layer_dict<tspan font-size="24" x="431.707" y="0">, </tspan><tspan font-size="24" x="0" y="29">keys</tspan><tspan font-size="24" x="43.3066" y="29">, </tspan><tspan font-size="24" x="54.9733" y="29">freindly_layer_dict</tspan><tspan font-size="24" x="241.34" y="29">, </tspan><tspan font-size="24" x="253.007" y="29">depth</tspan>)<tspan font-weight="400" font-size="24" x="0" y="87">Builds the data tree according to return.</tspan><tspan font-weight="400" font-size="24" x="0" y="116">Then calls itself on a layer deeper.</tspan><tspan font-weight="400" font-size="24" x="328.98" y="116">. </tspan></text><path d="M0 0 46.9133 0.000104987" stroke="#000000" stroke-width="4.00031" stroke-miterlimit="8" fill="none" fill-rule="evenodd" transform="matrix(-1 0 0 1 872.913 813)"/><path d="M0 0 0.000104987 139.452" stroke="#000000" stroke-width="4.00031" stroke-miterlimit="8" fill="none" fill-rule="evenodd" transform="matrix(1 0 0 -1 825 812.453)"/><path d="M826 671 873.088 671 873.088 675 826 675ZM862.095 664.272 877.057 673 862.095 681.728C861.14 682.285 859.916 681.963 859.359 681.008 858.802 680.054 859.125 678.83 860.079 678.273L872.08 671.272 872.08 674.728 860.079 667.727C859.125 667.171 858.802 665.946 859.359 664.992 859.916 664.038 861.14 663.715 862.095 664.272Z"/><text font-family="Calibri,Calibri_MSFontService,sans-serif" font-weight="700" font-size="24" transform="translate(295.299 433)">search(request)(selected class)</text><rect x="299" y="532" width="395" height="112" fill="#E2F0D9"/><text font-family="Calibri,Calibri_MSFontService,sans-serif" font-weight="700" font-size="16" transform="translate(300.607 559)">Generate_html_from_dict_via_recusion(data_tree_dict) <tspan font-weight="400" font-size="16" x="0" y="38">Generates the HTML code for each layer by calling itself </tspan><tspan font-weight="400" font-size="16" x="0" y="58">on each layer. Sets every layer in a different CSS class. </tspan><tspan font-weight="400" font-size="16" x="0" y="77">Lists instances as list elements. </tspan></text><path d="M0 0 39.0067 0.000104987" stroke="#000000" stroke-width="4.00031" stroke-miterlimit="8" fill="none" fill-rule="evenodd" transform="matrix(-1 0 0 1 299.007 623)"/><path d="M0 0 0.000104987 64.0378" stroke="#000000" stroke-width="4.00031" stroke-miterlimit="8" fill="none" fill-rule="evenodd" transform="matrix(1 0 0 -1 260 623.038)"/><path d="M260 557 295.046 557 295.046 561 260 561ZM284.053 550.272 299.016 559 284.053 567.728C283.099 568.285 281.874 567.963 281.318 567.008 280.761 566.054 281.083 564.83 282.038 564.273L294.039 557.272 294.039 560.728 282.038 553.727C281.083 553.171 280.761 551.946 281.318 550.992 281.874 550.038 283.099 549.715 284.053 550.272Z"/><text font-family="Calibri,Calibri_MSFontService,sans-serif" font-weight="400" font-size="21" transform="translate(304.555 685)">Inserts the HTML code into the HTML <tspan font-size="21" x="0" y="26">template SurfTheOWL.html and serves it to </tspan><tspan font-size="21" x="0" y="51">the web browser. </tspan><tspan font-size="24" x="595.045" y="211">Processes the data tree to separate </tspan><tspan font-size="24" x="595.045" y="240">classified objects into a special list. </tspan><tspan font-size="24" x="595.045" y="298">Then returns the data tree with </tspan><tspan font-size="24" x="595.045" y="327">freindlyNames</tspan><tspan font-size="24" x="737.065" y="327">. </tspan></text><path d="M0 0 107.555 1.40924" stroke="#000000" stroke-width="4.00031" stroke-miterlimit="8" fill="none" fill-rule="evenodd" transform="matrix(1 0 0 -1 750 1024.41)"/><path d="M2-2.30039e-07 2.0001 902.777-1.9999 902.777-2 2.30039e-07ZM6.0001 900.776 0.000104987 912.776-5.9999 900.776Z" transform="matrix(1 0 0 -1 1317 1753.78)"/><path d="M1317 1752 2224.82 1752 2224.82 1756 1317 1756ZM2222.82 1748 2234.82 1754 2222.82 1760Z"/><path d="M2-1.32801e-06 2.0001 148.112-1.9999 148.112-2 1.32801e-06ZM6.0001 146.111 0.000104987 158.111-5.9999 146.111Z" transform="matrix(1 0 0 -1 2033 1682.11)"/><path d="M2033 1680 2224.87 1680 2224.87 1684 2033 1684ZM2222.87 1676 2234.87 1682 2222.87 1688Z"/><path d="M3110.91 703.194 2668.99 702.026 2669 698.026 3110.92 699.194ZM2670.98 706.032 2659 700 2671.02 694.032Z"/><path d="M3113 696 3113 747.466 3109 747.466 3109 696ZM3117 745.466 3111 757.466 3105 745.466Z"/><path d="M3427 593 3427 875.898 3423 875.898 3423 593ZM3431 873.898 3425 885.898 3419 873.898Z"/><path d="M2.74016e-07-2 756.285-1.9999 756.285 2.0001-2.74016e-07 2ZM754.282-5.9999 766.282 0.000104987 754.282 6.0001Z" transform="matrix(-1 0 0 1 3425.28 593)"/><path d="M7.50573e-07-2 269.751-1.9999 269.751 2.0001-7.50573e-07 2ZM267.751-5.9999 279.751 0.000104987 267.751 6.0001Z" transform="matrix(-1 0 0 1 3210.75 1173)"/><path d="M2-1.10065e-06 2.0001 180.772-1.9999 180.772-2 1.10065e-06ZM6.0001 178.772 0.000104987 190.772-5.9999 178.772Z" transform="matrix(1 0 0 -1 3213 1174.77)"/><path d="M4.47579e-06-2 36.9132-1.99992 36.9132 2.00008-4.47579e-06 2ZM34.9132-5.99992 46.9132 0.000104987 34.9132 6.00008Z" transform="matrix(-1 0 0 1 749.913 506)"/><path d="M750 506 750 1024.69" stroke="#000000" stroke-width="4" stroke-miterlimit="8" fill="none" fill-rule="evenodd"/><path d="M0 0 123.214 0.000104987" stroke="#000000" stroke-width="4" stroke-miterlimit="8" fill="none" fill-rule="evenodd" transform="matrix(-1 0 0 1 285.214 705)"/><path d="M2-9.8012e-07 2.0001 204.233-1.9999 204.233-2 9.8012e-07ZM6.0001 202.233 0.000104987 214.233-5.9999 202.233Z" transform="matrix(1 0 0 -1 162 704.233)"/><path d="M2891.71 288.377 2033 283" stroke="#000000" stroke-width="4" stroke-miterlimit="8" fill="none" fill-rule="evenodd"/><path d="M2035 283 2035 617.112 2031 617.112 2031 283ZM2039 615.112 2033 627.112 2027 615.112Z"/><rect x="1071" y="182" width="140" height="42" fill="#F2F2F2"/><text font-family="Calibri,Calibri_MSFontService,sans-serif" font-weight="400" font-size="13" transform="translate(1080.28 199)">Called when the script <tspan font-size="13" x="0" y="16">is initialized. </tspan><tspan font-weight="700" font-size="16" x="-237.257" y="-73">get_all_classes_as_list</tspan><tspan font-weight="700" font-size="16" x="-88.7571" y="-73">(</tspan><tspan font-weight="700" font-size="16" x="-83.7571" y="-73">class_list</tspan><tspan font-weight="700" font-size="16" x="-24.7572" y="-73">)</tspan><tspan font-size="16" x="-237.257" y="-54">Returns all </tspan><tspan font-size="16" x="-164.424" y="-54">classes</tspan><tspan font-size="16" x="-115.591" y="-54">which</tspan><tspan font-size="16" x="-73.2571" y="-54">a </tspan><tspan font-size="16" x="-61.9238" y="-54">part</tspan><tspan font-size="16" x="-31.4238" y="-54">of</tspan><tspan font-size="16" x="-14.4238" y="-54">TriboDataFAIR.owl</tspan><tspan font-size="16" x="106.91" y="-54">, </tspan><tspan font-size="16" x="-237.257" y="-35">saved</tspan><tspan font-size="16" x="-196.091" y="-35">in variable </tspan><tspan font-size="16" x="-125.091" y="-35">all_owl_classes</tspan><tspan font-weight="700" font-size="16" x="-235.886" y="61">get_searchable_classes_from_list</tspan><tspan font-weight="700" font-size="16" x="-13.3859" y="61">(</tspan><tspan font-weight="700" font-size="16" x="-8.38586" y="61">class_list</tspan><tspan font-weight="700" font-size="16" x="50.6141" y="61">)</tspan><tspan font-size="16" x="-235.886" y="80">Gets all related classes from Kadi4MateRecord as variable </tspan><tspan font-size="16" x="-235.886" y="99">searchable_owl_classes</tspan><tspan font-size="16" x="-80.7192" y="99">.</tspan></text><rect x="1130" y="315" width="140" height="42" fill="#F2F2F2"/><text font-family="Calibri,Calibri_MSFontService,sans-serif" font-weight="400" font-size="13" transform="translate(1139.14 332)">Called when the script <tspan font-size="13" x="0" y="16">is initialized. </tspan></text></g></svg>